<svg width="130" height="51" viewBox="0 0 130 51" fill="none" xmlns="http://www.w3.org/2000/svg">
<path d="M12.1393 32.6883C9.77482 32.6883 7.67847 32.2252 5.85026 31.2989C4.02205 30.397 2.58387 29.1538 1.53569 27.5694C0.511898 25.9605 0 24.1445 0 22.1213C0 20.8537 0.219384 19.5496 0.658154 18.2089C0.901915 17.502 1.25537 16.8804 1.71852 16.3442C2.18166 15.8079 2.66918 15.3691 3.18108 15.0279C3.69298 14.6866 4.13175 14.4672 4.49739 14.3697C4.76553 14.2966 4.93616 14.26 5.00929 14.26C5.17992 14.26 5.11898 14.3819 4.82647 14.6257C4.55833 14.845 4.21706 15.0888 3.80267 15.3569C3.33952 15.6738 2.80325 16.1492 2.19385 16.7829C1.58445 17.4167 1.17005 18.3552 0.950668 19.5984C0.901916 19.8909 0.865351 20.1834 0.840975 20.4759C0.816599 20.7684 0.804412 21.0488 0.804412 21.3169C0.804412 22.9013 1.15787 24.303 1.86477 25.5218C2.59605 26.7162 3.53453 27.7156 4.68021 28.52C5.82589 29.3244 7.06907 29.9338 8.40975 30.3482C9.77481 30.7626 11.0789 30.9698 12.3221 30.9698C14.2966 30.9698 16.1248 30.5798 17.8067 29.7998C19.4887 29.0441 21.0244 27.9959 22.4138 26.6553C23.8276 25.3146 25.0952 23.7789 26.2165 22.0482C27.3378 20.2931 28.325 18.4405 29.1782 16.4904C28.9832 16.4904 28.7028 16.4904 28.3372 16.4904C27.9716 16.4661 27.5694 16.4539 27.1306 16.4539C26.4724 16.4539 25.7533 16.5026 24.9733 16.6001C24.2176 16.6732 23.4986 16.8561 22.816 17.1486C22.1579 17.4167 21.6216 17.8433 21.2072 18.4283C21.0609 18.599 20.9269 18.6843 20.805 18.6843C20.7075 18.6843 20.6344 18.6233 20.5856 18.5015C20.5369 18.3796 20.549 18.2455 20.6222 18.0992C21.2072 16.8073 22.0116 15.9298 23.0354 15.4666C24.0592 15.0035 25.2049 14.7719 26.4724 14.7719C27.0087 14.7719 27.545 14.8085 28.0813 14.8816C28.6419 14.9304 29.1904 15.0035 29.7266 15.101C30.1654 14.0528 30.6529 13.0046 31.1892 11.9565C31.7255 10.9083 32.2496 9.93326 32.7615 9.03134C33.2734 8.12943 33.7365 7.37377 34.1509 6.76437C34.5653 6.13059 34.8578 5.71619 35.0284 5.52118C33.4684 4.74115 31.8596 4.02205 30.202 3.3639C28.5444 2.70575 26.8137 2.25479 25.0099 2.01103C24.6442 1.96227 24.2786 1.92571 23.9129 1.90133C23.5473 1.87696 23.1939 1.86477 22.8526 1.86477C21.2438 1.86477 19.8056 2.12072 18.538 2.63262C17.2705 3.14452 16.1979 3.80267 15.3204 4.60708C14.4428 5.38712 13.7725 6.22809 13.3093 7.13001C12.8462 8.00755 12.6146 8.83633 12.6146 9.61637C12.6146 10.6402 12.9803 11.3714 13.7116 11.8102C14.1503 12.0784 14.5891 12.2734 15.0279 12.3952C15.491 12.5171 15.9298 12.5781 16.3442 12.5781C17.2705 12.5781 18.1114 12.3831 18.8671 11.993C19.6228 11.603 20.22 11.1764 20.6587 10.7133C21.1219 10.2258 21.3535 9.86013 21.3535 9.61637C21.3535 9.37261 21.4266 9.16541 21.5728 8.99478C21.7191 8.79977 21.841 8.70226 21.9385 8.70226C22.036 8.70226 22.0847 8.78758 22.0847 8.95821C22.0847 9.08009 22.0482 9.25073 21.975 9.47011C21.6094 10.7377 20.8659 11.7127 19.7446 12.3952C18.6477 13.0534 17.4898 13.3825 16.271 13.3825C15.7591 13.3825 15.2472 13.3215 14.7353 13.1997C14.2478 13.0778 13.7847 12.895 13.3459 12.6512C12.5415 12.188 11.9443 11.603 11.5543 10.8961C11.1642 10.1648 10.9692 9.3848 10.9692 8.55601C10.9692 7.60534 11.213 6.6303 11.7005 5.63088C12.188 4.60708 12.8828 3.68079 13.7847 2.852C14.711 1.99884 15.8201 1.31631 17.112 0.804409C18.404 0.268137 19.8665 0 21.4997 0C22.7429 0 24.1323 0.207196 25.668 0.621589C27.6912 1.15786 29.556 1.82821 31.2623 2.63262C32.9687 3.41265 34.3825 4.15612 35.5038 4.86303C35.6744 4.66802 35.9547 4.41207 36.3448 4.09518C36.7348 3.77829 37.2345 3.61985 37.8439 3.61985C38.0633 3.61985 38.3192 3.65641 38.6117 3.72954C38.8311 3.80267 38.9896 3.92455 39.0871 4.09518C39.2089 4.26582 39.2699 4.43645 39.2699 4.60708C39.2699 4.82647 39.1968 4.93616 39.0505 4.93616C38.953 4.93616 38.8067 4.82647 38.6117 4.60708C38.4411 4.53395 38.2583 4.49739 38.0633 4.49739C37.7464 4.49739 37.4417 4.5827 37.1492 4.75334C36.8567 4.92397 36.6007 5.10679 36.3813 5.3018C36.8201 5.52118 37.3929 5.77713 38.0998 6.06965C38.8311 6.36216 39.6355 6.65467 40.5131 6.94719C41.3906 7.2397 42.2681 7.48346 43.1457 7.67847C44.0476 7.8491 44.8764 7.93442 45.632 7.93442C46.2658 7.93442 46.8387 7.8491 47.3506 7.67847C47.8625 7.50784 48.2281 7.19095 48.4475 6.7278C48.6425 6.26466 48.8253 6.03308 48.996 6.03308C49.1178 6.03308 49.1788 6.16715 49.1788 6.43529C49.1788 6.50842 49.1788 6.58154 49.1788 6.65467C49.1788 6.7278 49.1666 6.80093 49.1422 6.87406C49.0447 7.53221 48.6425 8.09286 47.9356 8.55601C47.2287 8.99478 46.3755 9.21416 45.3761 9.21416C45.2298 9.21416 45.0714 9.21416 44.9008 9.21416C44.7545 9.18979 44.5961 9.16541 44.4254 9.14104C43.0116 8.89727 41.6953 8.54382 40.4765 8.08067C39.2577 7.61753 38.2339 7.17876 37.4051 6.76437C36.6007 6.34997 36.0766 6.09402 35.8329 5.99652C35.0528 6.87406 34.3581 7.89785 33.7487 9.06791C33.1393 10.238 32.603 11.3958 32.1399 12.5415C31.7011 13.6872 31.2989 14.6622 30.9333 15.4666C31.6889 15.5641 32.5055 15.6373 33.3831 15.686C34.285 15.7104 35.1259 15.7226 35.906 15.7226C36.296 15.7226 36.6495 15.7226 36.9663 15.7226C37.3076 15.6982 37.6001 15.686 37.8439 15.686H38.0633C38.5508 15.686 38.7946 15.7713 38.7946 15.942C38.7946 16.1126 38.5142 16.271 37.9536 16.4173C37.5879 16.5148 36.9663 16.5879 36.0888 16.6367C35.2356 16.6854 34.3459 16.7098 33.4196 16.7098C32.859 16.7098 32.3227 16.6976 31.8108 16.6732C31.2989 16.6489 30.8601 16.6123 30.4945 16.5636C29.9826 17.953 29.3976 19.3912 28.7394 20.8781C28.0813 22.3651 27.2768 23.8154 26.3262 25.2293C25.3999 26.6187 24.2786 27.8741 22.9623 28.9954C21.6703 30.141 20.1347 31.043 18.3552 31.7011C16.5757 32.3593 14.5038 32.6883 12.1393 32.6883Z" fill="white"/>
<path d="M46.6096 28.0081C46.3414 28.0325 46.0367 27.9716 45.6955 27.8253C45.3542 27.6791 45.0495 27.4109 44.7814 27.0209C44.5376 26.6309 44.4157 26.0824 44.4157 25.3755C44.4157 24.7905 44.5254 24.0836 44.7448 23.2548C44.4523 23.7179 44.0744 24.2908 43.6113 24.9733C43.1482 25.6315 42.6484 26.2165 42.1122 26.7284C41.649 27.1672 41.2103 27.484 40.7959 27.6791C40.3815 27.8741 40.0036 27.9716 39.6624 27.9716C39.0286 27.9716 38.5167 27.6912 38.1267 27.1306C37.7367 26.5456 37.5417 25.7899 37.5417 24.8636C37.5417 23.8886 37.7854 22.7795 38.2729 21.5363C38.7605 20.2931 39.5527 19.0012 40.6496 17.6605C41.3565 16.8073 42.2097 16.1248 43.2091 15.6129C44.2329 15.0766 45.2323 14.8085 46.2074 14.8085C46.768 14.8085 47.3043 14.906 47.8162 15.101C48.3281 15.2716 48.779 15.5641 49.1691 15.9785C49.3397 16.1492 49.425 16.3442 49.425 16.5636C49.425 16.7098 49.3641 16.8317 49.2422 16.9292C49.1203 17.0267 48.9619 17.0511 48.7668 17.0023C48.4987 16.1492 47.9259 15.7226 47.0483 15.7226C46.6339 15.7226 46.1586 15.8566 45.6223 16.1248C44.7935 16.5636 43.9282 17.2827 43.0263 18.2821C42.1487 19.2815 41.3809 20.3175 40.7227 21.39C40.6252 21.5363 40.4668 21.8166 40.2474 22.231C40.0524 22.6454 39.8574 23.1085 39.6624 23.6204C39.4674 24.1323 39.3333 24.632 39.2602 25.1196C39.2358 25.2658 39.2236 25.3755 39.2236 25.4486C39.2236 25.4974 39.2236 25.5827 39.2236 25.7046C39.2236 26.509 39.5283 26.9112 40.1377 26.9112C40.869 26.9112 41.6978 26.3749 42.6241 25.3024C43.2578 24.5224 43.8307 23.7058 44.3426 22.8526C44.8545 21.9994 45.3786 21.0853 45.9148 20.1103C46.2805 19.4521 46.6217 18.9037 46.9386 18.4649C47.2555 18.0261 47.7065 17.8067 48.2915 17.8067C48.5597 17.8067 48.8278 17.8433 49.0959 17.9164C49.3641 17.9896 49.6444 18.0017 49.9369 17.953C49.7419 18.148 49.4738 18.5136 49.1325 19.0499C48.8156 19.5862 48.4743 20.1956 48.1087 20.8781C47.7431 21.5607 47.414 22.2554 47.1215 22.9623C46.829 23.6692 46.6218 24.2786 46.4999 24.7905C46.4755 24.9367 46.4389 25.1439 46.3902 25.4121C46.3658 25.6802 46.3536 25.8752 46.3536 25.9971C46.3536 26.6796 46.5486 27.0209 46.9386 27.0209C47.3287 27.0209 47.7431 26.7893 48.1818 26.3262C48.645 25.863 49.0959 25.2902 49.5347 24.6077C49.9735 23.9251 50.3757 23.2426 50.7413 22.5601C51.107 21.8532 51.3995 21.2803 51.6189 20.8416C51.7164 20.5978 51.8626 20.4759 52.0576 20.4759C52.1795 20.4759 52.2404 20.5612 52.2404 20.7319C52.2404 20.805 52.2039 20.9391 52.1307 21.1341C51.8382 21.7435 51.4848 22.4382 51.0704 23.2182C50.656 23.9739 50.205 24.7174 49.7175 25.4486C49.23 26.1555 48.7181 26.7528 48.1818 27.2403C47.6699 27.7034 47.1458 27.9594 46.6096 28.0081Z" fill="white"/>
<path d="M54.1989 27.935C53.1507 27.935 52.3707 27.6669 51.8588 27.1306C51.3469 26.5943 51.091 25.924 51.091 25.1196C51.091 24.7295 51.1397 24.3517 51.2372 23.9861C51.3835 23.4254 51.5907 22.8038 51.8588 22.1213C52.1513 21.4144 52.4804 20.6953 52.846 19.964C51.9929 21.6216 51.2128 23.0232 50.5059 24.1689C49.8234 25.2902 49.2993 26.0215 48.9337 26.3627C48.8605 26.4359 48.7874 26.4724 48.7143 26.4724C48.5924 26.4724 48.5315 26.4115 48.5315 26.2896C48.5315 26.1921 48.568 26.0946 48.6412 25.9971C49.1531 25.3146 49.7381 24.3761 50.3962 23.1817C51.0788 21.9872 51.7979 20.6587 52.5535 19.1962C53.3092 17.7092 54.077 16.2101 54.8571 14.6988C55.6371 13.1875 56.3928 11.7615 57.124 10.4208C57.8797 9.08009 58.5622 7.9466 59.1716 7.02031C59.6104 6.36216 60.0248 5.89901 60.4148 5.63088C60.8048 5.33836 61.207 5.19211 61.6214 5.19211H61.8043C62.0236 5.19211 62.2674 5.22867 62.5355 5.3018C62.828 5.37493 63.0962 5.38712 63.3399 5.33836C63.0231 5.67963 62.5355 6.28903 61.8774 7.16657C61.2436 8.01973 60.5245 9.03134 59.7201 10.2014C58.9401 11.3471 58.1478 12.5659 57.3434 13.8578C56.5634 15.1254 55.8687 16.3685 55.2593 17.5874C54.6742 18.7574 54.1502 20.0128 53.687 21.3535C53.2482 22.6698 53.0289 23.8276 53.0289 24.8271C53.0289 25.4121 53.1264 25.8996 53.3214 26.2896C53.5164 26.6796 53.8455 26.9234 54.3086 27.0209C55.0886 27.1915 56.1368 26.4968 57.4531 24.9367C57.965 24.3273 58.4769 23.6082 58.9888 22.7795C59.5007 21.9263 59.9029 21.1341 60.1954 20.4028C60.6098 19.4277 60.817 18.538 60.817 17.7336C60.817 17.1242 60.6586 16.6367 60.3417 16.271C60.0492 15.9054 59.5495 15.7591 58.8426 15.8323H58.6963C58.2575 15.8323 58.0381 15.7104 58.0381 15.4666C58.0381 15.3691 58.0991 15.2716 58.221 15.1741C58.3672 15.0766 58.5622 15.0279 58.806 15.0279C58.8791 15.0279 58.9522 15.04 59.0254 15.0644C59.1229 15.0644 59.2204 15.0766 59.3179 15.101C60.4148 15.2716 61.1948 15.7226 61.658 16.4539C62.1455 17.1608 62.3893 17.9774 62.3893 18.9037C62.3893 19.0987 62.3771 19.3181 62.3527 19.5618C62.3283 19.7812 62.2918 20.025 62.243 20.2931C62.048 21.2925 61.6702 22.3163 61.1095 23.3645C60.5489 24.3883 59.8542 25.2902 59.0254 26.0702C58.221 26.8503 57.319 27.3744 56.3196 27.6425C55.9052 27.74 55.5152 27.8131 55.1496 27.8619C54.8083 27.9106 54.4914 27.935 54.1989 27.935Z" fill="white"/>
<path d="M68.3375 13.0534C67.9719 13.0534 67.6672 12.9315 67.4234 12.6878C67.204 12.4196 67.0943 12.1027 67.0943 11.7371C67.0943 11.2739 67.2772 10.8717 67.6428 10.5305C68.0084 10.1892 68.4106 10.0186 68.8494 10.0186C69.2394 10.0186 69.5563 10.1405 69.8001 10.3842C70.0438 10.628 70.1657 10.9205 70.1657 11.2618C70.1657 11.7249 69.9829 12.1393 69.6173 12.5049C69.2516 12.8706 68.825 13.0534 68.3375 13.0534ZM65.3758 27.8984C64.4739 27.8984 63.8401 27.6425 63.4745 27.1306C63.1088 26.5943 62.926 25.9849 62.926 25.3024C62.926 24.9367 62.9626 24.5711 63.0357 24.2055C63.1332 23.8154 63.2429 23.462 63.3648 23.1451L65.8146 16.8926C65.8877 16.6976 65.9243 16.527 65.9243 16.3807C65.9243 16.137 65.8633 15.9298 65.7415 15.7591C65.6196 15.5641 65.5343 15.4301 65.4855 15.3569L67.4965 15.2838C67.8622 15.2594 68.1181 15.3082 68.2644 15.4301C68.435 15.5276 68.5203 15.6495 68.5203 15.7957C68.5203 15.942 68.435 16.2101 68.2644 16.6001L65.2296 23.7301C65.2296 23.7301 65.1564 23.8886 65.0102 24.2055C64.8883 24.498 64.8152 24.693 64.7908 24.7905C64.7177 25.1561 64.6689 25.3877 64.6445 25.4852C64.6202 25.5827 64.608 25.6437 64.608 25.668C64.608 25.6924 64.608 25.7899 64.608 25.9605C64.608 26.2774 64.6811 26.5456 64.8274 26.7649C64.998 26.9843 65.2783 27.094 65.6683 27.094C65.9121 27.094 66.1924 27.0209 66.5093 26.8746C66.8262 26.7284 67.0578 26.5821 67.204 26.4359C67.8134 25.8021 68.4106 24.9733 68.9957 23.9495C69.6051 22.9013 70.1657 21.8654 70.6776 20.8416C70.7751 20.5978 70.897 20.4759 71.0433 20.4759C71.1651 20.4759 71.2261 20.5612 71.2261 20.7319C71.2261 20.8294 71.1895 20.9756 71.1164 21.1706C70.8726 21.6825 70.5679 22.3163 70.2023 23.072C69.8366 23.8276 69.3979 24.5833 68.886 25.339C68.3985 26.0702 67.8622 26.6796 67.2772 27.1672C66.6921 27.6547 66.0584 27.8984 65.3758 27.8984Z" fill="white"/>
<path d="M73.2657 28.0447C72.3638 28.0447 71.5472 27.7522 70.8159 27.1672C70.109 26.5821 69.7555 25.6924 69.7555 24.498C69.7555 23.4011 70.0237 22.231 70.5599 20.9878C71.0962 19.7203 71.7787 18.6111 72.6075 17.6605C73.3144 16.8317 74.1067 16.1492 74.9842 15.6129C75.8617 15.0766 76.6905 14.8085 77.4706 14.8085C78.0068 14.8085 78.47 14.9547 78.86 15.2472C79.2744 15.5641 79.4816 16.0151 79.4816 16.6001C79.4816 17.2095 79.25 17.8799 78.7869 18.6111C78.3237 19.3424 77.6656 20.025 76.8124 20.6587C76.4468 20.9269 75.9836 21.1828 75.423 21.4266C74.8623 21.6703 74.3017 21.8775 73.741 22.0482C73.1804 22.1944 72.7172 22.2676 72.3516 22.2676C72.2297 22.5601 72.1078 22.9501 71.9859 23.4376C71.8884 23.9251 71.8397 24.4248 71.8397 24.9367C71.8397 25.5461 71.9616 26.0946 72.2053 26.5821C72.4491 27.0697 72.9 27.3134 73.5582 27.3134C74.3626 27.3134 75.0939 27.0818 75.752 26.6187C76.4102 26.1555 76.9952 25.5827 77.5071 24.9002C78.019 24.1933 78.4456 23.4864 78.7869 22.7795C79.1525 22.0726 79.445 21.4753 79.6644 20.9878C79.8107 20.6466 80.0057 20.4759 80.2494 20.4759C80.3713 20.4759 80.4322 20.5369 80.4322 20.6587C80.4322 20.7562 80.3957 20.8781 80.3226 21.0244C79.9813 21.7557 79.6156 22.5357 79.2256 23.3645C78.8356 24.1689 78.3725 24.9367 77.8362 25.668C77.2999 26.3749 76.654 26.9478 75.8983 27.3865C75.167 27.8253 74.2895 28.0447 73.2657 28.0447ZM72.6075 21.6094C72.9488 21.6094 73.5216 21.4875 74.326 21.2438C75.1304 20.9756 75.8617 20.5612 76.5199 20.0006C77.1537 19.4399 77.6412 18.8305 77.9824 18.1724C78.3237 17.4898 78.4944 16.917 78.4944 16.4539C78.4944 15.9176 78.2993 15.6495 77.9093 15.6495C77.6168 15.6495 77.2146 15.8445 76.7027 16.2345C76.1908 16.6245 75.557 17.2827 74.8014 18.2089C74.3382 18.794 73.8995 19.4277 73.4851 20.1103C73.0707 20.7928 72.7782 21.2925 72.6075 21.6094Z" fill="white"/>
<path d="M76.2657 28.191C77.1432 26.4115 77.9842 24.6564 78.7886 22.9257C79.6174 21.1706 80.4583 19.5009 81.3115 17.9164C81.799 17.0389 82.2012 16.4295 82.5181 16.0882C82.8594 15.7226 83.3103 15.5398 83.871 15.5398C84.066 15.5398 84.2732 15.5763 84.4926 15.6495C84.712 15.6982 84.9314 15.7226 85.1507 15.7226C85.297 15.7226 85.4067 15.7104 85.4798 15.686C85.1386 15.881 84.6998 16.3685 84.1635 17.1486C83.6272 17.9042 83.0788 18.7818 82.5181 19.7812C81.9575 20.7806 81.4578 21.7191 81.019 22.5966C81.4821 22.036 81.9575 21.4753 82.445 20.9147C82.9569 20.354 83.5175 19.8178 84.1269 19.3059C84.712 18.794 85.4067 18.2699 86.2111 17.7336C87.0399 17.173 87.8443 16.7098 88.6243 16.3442C89.4044 15.9785 90.026 15.7957 90.4891 15.7957C90.6597 15.7957 90.7816 15.8079 90.8547 15.8323C90.8547 15.8323 90.7207 16.076 90.4525 16.5636C90.1844 17.0267 89.8431 17.6483 89.4287 18.4283C89.0387 19.184 88.6365 20.0006 88.2221 20.8781C87.8077 21.7313 87.4299 22.5601 87.0886 23.3645C86.7717 24.1445 86.5645 24.8027 86.467 25.339C86.3939 25.6558 86.3574 25.9484 86.3574 26.2165C86.3574 26.6065 86.4305 26.8625 86.5767 26.9843C86.723 27.1062 86.8814 27.1672 87.0521 27.1672C87.5152 27.1672 88.0027 26.9234 88.5146 26.4359C89.0265 25.924 89.5141 25.3024 89.9772 24.5711C90.4647 23.8398 90.8913 23.1329 91.257 22.4504C91.647 21.7435 91.9273 21.2072 92.0979 20.8416C92.1954 20.6466 92.2686 20.5369 92.3173 20.5125C92.3661 20.4637 92.4392 20.4394 92.5367 20.4394C92.6829 20.4394 92.7561 20.5369 92.7561 20.7319C92.7561 20.8537 92.7195 20.9878 92.6464 21.1341C92.3539 21.6947 92.0004 22.3651 91.586 23.1451C91.196 23.9251 90.745 24.693 90.2332 25.4486C89.7213 26.1799 89.1606 26.8015 88.5512 27.3134C87.9418 27.8009 87.2836 28.0447 86.5767 28.0447C86.0892 28.0447 85.5773 27.8741 85.041 27.5328C84.5291 27.1915 84.2732 26.5578 84.2732 25.6315C84.2732 25.3633 84.2976 25.083 84.3463 24.7905C84.3951 24.4736 84.4804 24.1323 84.6023 23.7667C84.7973 23.2792 85.0289 22.7551 85.297 22.1944C85.5651 21.6338 86.0039 20.8659 86.6133 19.8909C86.7839 19.6228 86.8814 19.4156 86.9058 19.2693C86.9546 19.123 86.9789 19.0012 86.9789 18.9037C86.9789 18.6111 86.8449 18.4649 86.5767 18.4649C86.3574 18.4649 86.0283 18.5868 85.5895 18.8305C85.1751 19.0743 84.651 19.5009 84.0172 20.1103C83.4078 20.6953 82.6766 21.5241 81.8234 22.5966C80.9946 23.6692 80.0318 25.2536 78.9348 27.35C78.7642 27.6669 78.5692 27.8375 78.3498 27.8619C78.1548 27.8863 77.8745 27.9106 77.5088 27.935C77.2651 27.9594 77.0335 27.9716 76.8141 27.9716C76.5947 27.9959 76.4119 28.0691 76.2657 28.191Z" fill="white"/>
<path d="M88.5489 28.191C89.4265 26.4115 90.2674 24.6564 91.0718 22.9257C91.9006 21.1706 92.7416 19.5009 93.5948 17.9164C94.0823 17.0389 94.4845 16.4295 94.8014 16.0882C95.1427 15.7226 95.5936 15.5398 96.1543 15.5398C96.3493 15.5398 96.5565 15.5763 96.7758 15.6495C96.9952 15.6982 97.2146 15.7226 97.434 15.7226C97.5803 15.7226 97.6899 15.7104 97.7631 15.686C97.4218 15.881 96.983 16.3685 96.4468 17.1486C95.9105 17.9042 95.362 18.7818 94.8014 19.7812C94.2407 20.7806 93.741 21.7191 93.3023 22.5966C93.7654 22.036 94.2407 21.4753 94.7283 20.9147C95.2401 20.354 95.8008 19.8178 96.4102 19.3059C96.9952 18.794 97.6899 18.2699 98.4944 17.7336C99.3231 17.173 100.128 16.7098 100.908 16.3442C101.688 15.9785 102.309 15.7957 102.772 15.7957C102.943 15.7957 103.065 15.8079 103.138 15.8323C103.138 15.8323 103.004 16.076 102.736 16.5636C102.468 17.0267 102.126 17.6483 101.712 18.4283C101.322 19.184 100.92 20.0006 100.505 20.8781C100.091 21.7313 99.7132 22.5601 99.3719 23.3645C99.055 24.1445 98.8478 24.8027 98.7503 25.339C98.6772 25.6558 98.6406 25.9484 98.6406 26.2165C98.6406 26.6065 98.7137 26.8625 98.86 26.9843C99.0063 27.1062 99.1647 27.1672 99.3353 27.1672C99.7985 27.1672 100.286 26.9234 100.798 26.4359C101.31 25.924 101.797 25.3024 102.26 24.5711C102.748 23.8398 103.175 23.1329 103.54 22.4504C103.93 21.7435 104.211 21.2072 104.381 20.8416C104.479 20.6466 104.552 20.5369 104.601 20.5125C104.649 20.4637 104.722 20.4394 104.82 20.4394C104.966 20.4394 105.039 20.5369 105.039 20.7319C105.039 20.8537 105.003 20.9878 104.93 21.1341C104.637 21.6947 104.284 22.3651 103.869 23.1451C103.479 23.9251 103.028 24.693 102.516 25.4486C102.005 26.1799 101.444 26.8015 100.834 27.3134C100.225 27.8009 99.5669 28.0447 98.86 28.0447C98.3725 28.0447 97.8606 27.8741 97.3243 27.5328C96.8124 27.1915 96.5565 26.5578 96.5565 25.6315C96.5565 25.3633 96.5808 25.083 96.6296 24.7905C96.6783 24.4736 96.7637 24.1323 96.8855 23.7667C97.0806 23.2792 97.3121 22.7551 97.5803 22.1944C97.8484 21.6338 98.2872 20.8659 98.8966 19.8909C99.0672 19.6228 99.1647 19.4156 99.1891 19.2693C99.2378 19.123 99.2622 19.0012 99.2622 18.9037C99.2622 18.6111 99.1281 18.4649 98.86 18.4649C98.6406 18.4649 98.3115 18.5868 97.8728 18.8305C97.4584 19.0743 96.9343 19.5009 96.3005 20.1103C95.6911 20.6953 94.9598 21.5241 94.1067 22.5966C93.2779 23.6692 92.315 25.2536 91.2181 27.35C91.0475 27.6669 90.8525 27.8375 90.6331 27.8619C90.4381 27.8863 90.1577 27.9106 89.7921 27.935C89.5483 27.9594 89.3168 27.9716 89.0974 27.9716C88.878 27.9959 88.6952 28.0691 88.5489 28.191Z" fill="white"/>
<path d="M106.902 28.0447C106 28.0447 105.183 27.7522 104.452 27.1672C103.745 26.5821 103.392 25.6924 103.392 24.498C103.392 23.4011 103.66 22.231 104.196 20.9878C104.732 19.7203 105.415 18.6111 106.244 17.6605C106.951 16.8317 107.743 16.1492 108.62 15.6129C109.498 15.0766 110.327 14.8085 111.107 14.8085C111.643 14.8085 112.106 14.9547 112.496 15.2472C112.911 15.5641 113.118 16.0151 113.118 16.6001C113.118 17.2095 112.886 17.8799 112.423 18.6111C111.96 19.3424 111.302 20.025 110.449 20.6587C110.083 20.9269 109.62 21.1828 109.059 21.4266C108.498 21.6703 107.938 21.8775 107.377 22.0482C106.817 22.1944 106.353 22.2676 105.988 22.2676C105.866 22.5601 105.744 22.9501 105.622 23.4376C105.525 23.9251 105.476 24.4248 105.476 24.9367C105.476 25.5461 105.598 26.0946 105.841 26.5821C106.085 27.0697 106.536 27.3134 107.194 27.3134C107.999 27.3134 108.73 27.0818 109.388 26.6187C110.046 26.1555 110.631 25.5827 111.143 24.9002C111.655 24.1933 112.082 23.4864 112.423 22.7795C112.789 22.0726 113.081 21.4753 113.301 20.9878C113.447 20.6466 113.642 20.4759 113.886 20.4759C114.007 20.4759 114.068 20.5369 114.068 20.6587C114.068 20.7562 114.032 20.8781 113.959 21.0244C113.617 21.7557 113.252 22.5357 112.862 23.3645C112.472 24.1689 112.009 24.9367 111.472 25.668C110.936 26.3749 110.29 26.9478 109.534 27.3865C108.803 27.8253 107.926 28.0447 106.902 28.0447ZM106.244 21.6094C106.585 21.6094 107.158 21.4875 107.962 21.2438C108.767 20.9756 109.498 20.5612 110.156 20.0006C110.79 19.4399 111.277 18.8305 111.619 18.1724C111.96 17.4898 112.13 16.917 112.13 16.4539C112.13 15.9176 111.935 15.6495 111.545 15.6495C111.253 15.6495 110.851 15.8445 110.339 16.2345C109.827 16.6245 109.193 17.2827 108.438 18.2089C107.974 18.794 107.536 19.4277 107.121 20.1103C106.707 20.7928 106.414 21.2925 106.244 21.6094Z" fill="white"/>
<path d="M67.3926 43.5113C68.2104 43.6856 68.8674 44.0945 69.3634 44.738C69.8595 45.3682 70.1075 46.0921 70.1075 46.9099C70.1075 48.0898 69.6919 49.0282 68.8607 49.7254C68.0428 50.4091 66.8966 50.751 65.4218 50.751H58.8457V36.6336H65.2006C66.6351 36.6336 67.7546 36.9621 68.559 37.619C69.3768 38.2759 69.7857 39.1675 69.7857 40.2937C69.7857 41.1249 69.5645 41.8153 69.1221 42.365C68.6931 42.9147 68.1166 43.2968 67.3926 43.5113ZM62.2846 42.3449H64.537C65.1 42.3449 65.5291 42.2243 65.824 41.9829C66.1324 41.7282 66.2866 41.3595 66.2866 40.8769C66.2866 40.3942 66.1324 40.0255 65.824 39.7708C65.5291 39.5161 65.1 39.3887 64.537 39.3887H62.2846V42.3449ZM64.8185 47.9758C65.395 47.9758 65.8374 47.8484 66.1458 47.5937C66.4675 47.3256 66.6284 46.9435 66.6284 46.4474C66.6284 45.9514 66.4608 45.5626 66.1257 45.281C65.8039 44.9995 65.3548 44.8587 64.7783 44.8587H62.2846V47.9758H64.8185Z" fill="white"/>
<path d="M75.5409 39.3887V42.2444H80.1461V44.8989H75.5409V47.9959H80.7495V50.751H72.102V36.6336H80.7495V39.3887H75.5409Z" fill="white"/>
<path d="M95.6113 50.751H92.1724L86.4209 42.0433V50.751H82.982V36.6336H86.4209L92.1724 45.3816V36.6336H95.6113V50.751Z" fill="white"/>
<path d="M104.781 50.8918C103.453 50.8918 102.233 50.5834 101.121 49.9667C100.021 49.35 99.143 48.492 98.4861 47.3926C97.8426 46.2798 97.5208 45.033 97.5208 43.6521C97.5208 42.2712 97.8426 41.031 98.4861 39.9317C99.143 38.8323 100.021 37.9743 101.121 37.3576C102.233 36.7409 103.453 36.4325 104.781 36.4325C106.108 36.4325 107.321 36.7409 108.421 37.3576C109.533 37.9743 110.405 38.8323 111.035 39.9317C111.678 41.031 112 42.2712 112 43.6521C112 45.033 111.678 46.2798 111.035 47.3926C110.391 48.492 109.52 49.35 108.421 49.9667C107.321 50.5834 106.108 50.8918 104.781 50.8918ZM104.781 47.7546C105.907 47.7546 106.805 47.3792 107.475 46.6284C108.159 45.8776 108.501 44.8855 108.501 43.6521C108.501 42.4052 108.159 41.4131 107.475 40.6758C106.805 39.925 105.907 39.5496 104.781 39.5496C103.641 39.5496 102.729 39.9183 102.046 40.6557C101.375 41.393 101.04 42.3918 101.04 43.6521C101.04 44.8989 101.375 45.8977 102.046 46.6485C102.729 47.3859 103.641 47.7546 104.781 47.7546Z" fill="white"/>
<path d="M117.352 36.6336V50.751H113.913V36.6336H117.352Z" fill="white"/>
<path d="M130 36.6336V39.3887H126.259V50.751H122.821V39.3887H119.08V36.6336H130Z" fill="white"/>
</svg>
